<svg xmlns="http://www.w3.org/2000/svg" xmlns:xlink="http://www.w3.org/1999/xlink" preserveAspectRatio="xMidYMid" width="1800" height="2400" viewBox="0 0 1800 2400">
  <defs>
    <style>
      .cls-1 {
        fill: #191919;
        fill-rule: evenodd;
      }
    </style>
  </defs>
  <path d="M800.000,430.000 C803.333,430.333 806.667,430.667 810.000,431.000 C819.893,445.582 838.029,455.094 850.000,468.000 C853.871,467.441 856.532,468.853 860.000,468.000 C863.349,467.177 866.099,463.035 870.000,462.000 C873.939,460.955 881.237,461.496 884.000,461.000 C889.025,460.097 889.658,463.121 892.000,464.000 C894.623,464.985 924.000,464.000 924.000,464.000 C925.579,463.630 928.435,460.498 930.000,460.000 C943.613,455.669 953.003,466.982 964.000,464.000 C971.014,462.098 977.389,455.449 984.000,453.000 C990.358,450.645 995.220,455.084 1002.000,453.000 C1010.770,450.304 1021.233,444.107 1030.000,441.000 C1040.147,437.404 1054.703,441.796 1063.000,437.000 C1068.622,433.750 1071.419,425.871 1078.000,423.000 C1092.164,416.820 1107.833,425.480 1122.000,422.000 C1140.822,417.376 1160.800,412.755 1180.000,408.000 C1189.547,405.636 1198.900,411.325 1206.000,410.000 C1212.012,408.878 1235.197,400.181 1238.000,401.000 C1242.818,402.407 1251.254,406.545 1256.000,408.000 C1259.333,408.333 1262.667,408.667 1266.000,409.000 C1276.208,413.987 1284.619,425.318 1295.000,431.000 C1299.300,433.353 1303.367,432.586 1308.000,435.000 C1311.767,436.963 1315.493,442.504 1319.000,445.000 C1322.956,447.815 1327.814,448.286 1332.000,451.000 C1346.554,460.436 1359.894,472.134 1382.000,474.000 C1386.773,469.172 1393.715,461.867 1400.000,459.000 C1408.293,455.217 1415.416,455.026 1423.000,451.000 C1431.042,446.730 1439.474,440.704 1450.000,438.000 C1455.999,438.000 1462.001,438.000 1468.000,438.000 C1474.423,436.414 1483.163,435.521 1490.000,433.000 C1495.858,430.840 1500.664,425.331 1506.000,423.000 C1510.181,421.173 1518.466,420.880 1522.000,420.000 C1531.332,420.000 1540.668,420.000 1550.000,420.000 C1554.823,418.838 1565.872,414.117 1572.000,416.000 C1580.529,418.621 1591.332,425.367 1599.000,429.000 C1605.244,431.958 1615.948,432.490 1622.000,434.000 C1629.999,434.000 1638.001,434.000 1646.000,434.000 C1670.121,440.003 1699.154,439.826 1724.000,446.000 C1737.848,449.441 1749.830,444.449 1764.000,448.000 C1775.481,450.877 1785.916,455.764 1800.000,456.000 C1800.000,1103.935 1800.000,1752.065 1800.000,2400.000 C1200.060,2400.000 599.940,2400.000 -0.000,2400.000 C-0.000,1736.400 -0.000,1072.600 -0.000,409.000 C1.460,408.146 2.867,407.188 4.000,406.000 C10.436,406.118 13.965,407.510 18.000,407.000 C19.731,406.781 24.670,405.216 28.000,406.000 C30.054,406.484 32.605,408.706 36.000,408.000 C41.731,406.809 48.743,402.893 54.000,401.000 C63.838,397.457 71.422,398.791 82.000,396.000 C92.346,393.270 95.884,386.494 108.000,387.000 C111.833,392.925 117.204,397.077 122.000,402.000 C125.333,402.667 128.667,403.333 132.000,404.000 C141.728,402.749 152.024,394.602 160.000,391.000 C163.753,389.305 166.152,390.519 170.000,389.000 C173.245,387.719 176.810,382.733 180.000,382.000 C183.656,381.160 187.006,385.519 192.000,384.000 C199.906,381.596 217.286,367.696 228.000,370.000 C237.257,371.990 249.167,377.722 258.000,381.000 C262.871,382.808 267.187,381.731 272.000,384.000 C279.971,387.758 287.444,396.679 296.000,400.000 C304.542,403.316 312.406,403.087 320.000,407.000 C329.191,411.736 349.505,425.573 360.000,426.000 C367.037,420.290 380.345,416.378 390.000,414.000 C394.000,414.000 398.000,414.000 402.000,414.000 C405.487,413.146 413.996,409.930 420.000,412.000 C425.534,413.908 427.374,421.072 440.000,418.000 C444.622,416.876 453.399,417.667 460.000,416.000 C475.256,412.146 493.372,405.634 512.000,405.000 C515.691,410.211 521.703,415.417 530.000,416.000 C537.114,411.032 545.059,415.235 552.000,412.000 C559.678,408.422 578.259,398.482 592.000,402.000 C600.768,404.245 606.285,412.827 620.000,410.000 C623.183,409.344 628.328,409.697 633.000,407.000 C635.000,404.334 637.000,401.666 639.000,399.000 C643.999,399.333 649.000,399.667 654.000,400.000 C668.497,396.367 688.903,374.001 704.000,378.000 C710.061,379.606 715.207,384.946 720.000,388.000 C723.299,390.102 725.911,389.370 730.000,391.000 C733.357,392.338 742.038,398.422 746.000,401.000 C749.469,403.257 751.923,410.510 756.000,409.000 C759.831,407.669 759.505,405.928 764.000,405.000 C765.267,407.196 767.743,412.667 770.000,414.000 C770.307,413.855 797.802,422.987 799.000,426.000 C799.803,427.180 799.773,427.681 800.000,430.000 ZM-0.000,1.000 L1.000,1.000 L1.000,-0.000 L-0.000,-0.000 L-0.000,1.000 Z" class="cls-1"/>
</svg>
