<svg xmlns="http://www.w3.org/2000/svg" xmlns:xlink="http://www.w3.org/1999/xlink" preserveAspectRatio="xMidYMid" width="1800" height="2400" viewBox="0 0 1800 2400">
  <defs>
    <style>
      .cls-1 {
        fill: #191919;
        fill-rule: evenodd;
      }
    </style>
  </defs>
  <path d="M800.000,430.000 C803.333,430.333 806.667,431.667 810.000,432.000 C818.591,444.664 843.921,462.843 843.000,465.000 C842.079,467.157 848.425,466.302 850.000,468.000 C853.879,467.423 856.528,468.860 860.000,468.000 C862.252,467.442 866.295,464.820 868.000,464.000 C872.040,462.057 879.873,462.746 884.000,462.000 C889.023,461.092 889.660,463.117 892.000,464.000 C902.592,467.997 928.103,461.593 934.000,460.000 C946.840,456.531 952.204,467.619 965.000,464.000 C971.921,462.043 977.396,457.407 984.000,455.000 C990.885,452.491 996.236,455.095 1003.000,453.000 C1013.313,449.805 1023.195,443.750 1034.000,441.000 C1037.198,440.186 1041.758,441.495 1044.000,442.000 C1048.999,441.667 1060.001,438.333 1065.000,438.000 C1067.382,434.333 1072.978,425.544 1078.000,425.000 C1081.609,422.802 1088.467,424.176 1093.000,423.000 C1101.243,420.861 1109.130,425.322 1119.000,423.000 C1126.312,421.280 1135.747,420.371 1144.000,418.000 C1155.331,414.745 1169.096,412.918 1182.000,410.000 C1191.669,407.814 1204.362,412.309 1214.000,410.000 C1220.069,408.546 1233.562,399.831 1238.000,401.000 C1238.820,401.216 1241.180,403.711 1242.000,404.000 C1252.083,407.560 1263.025,408.461 1271.000,414.000 C1274.237,416.249 1276.850,422.292 1280.000,424.000 C1282.000,424.000 1284.000,426.000 1286.000,426.000 C1290.511,428.144 1295.744,432.210 1300.000,435.000 C1303.333,435.667 1306.667,436.333 1310.000,437.000 C1312.666,439.666 1315.334,442.334 1318.000,445.000 C1322.318,447.924 1327.620,450.160 1332.000,453.000 C1341.455,459.131 1354.246,468.315 1358.000,470.000 C1361.754,471.685 1374.408,472.913 1384.000,475.000 C1385.188,471.682 1393.223,463.278 1396.000,462.000 C1400.717,459.829 1411.537,458.420 1416.000,456.000 C1428.222,449.373 1437.258,444.008 1452.000,440.000 C1462.758,437.075 1475.538,438.525 1485.000,436.000 C1496.235,433.001 1502.254,426.676 1512.000,423.000 C1523.227,418.765 1539.647,423.168 1552.000,420.000 C1556.427,418.865 1566.735,416.138 1574.000,418.000 C1583.835,420.521 1591.680,426.576 1600.000,430.000 C1605.689,432.342 1614.362,432.702 1620.000,434.000 C1628.666,434.000 1639.334,435.000 1648.000,435.000 C1672.525,441.077 1701.358,440.898 1726.000,447.000 C1738.665,447.333 1752.335,448.667 1765.000,449.000 C1776.240,451.805 1786.163,455.662 1800.000,456.000 C1799.725,1102.200 1800.000,1752.188 1800.000,2400.000 C1200.060,2400.000 599.940,2400.000 -0.000,2400.000 C-0.000,1736.400 -0.000,1072.600 -0.000,409.000 C1.460,408.146 2.867,407.188 4.000,406.000 C10.438,406.116 13.963,407.509 18.000,407.000 C19.730,406.782 24.671,405.215 28.000,406.000 C30.055,406.484 32.605,408.705 36.000,408.000 C41.732,406.809 48.741,402.888 54.000,401.000 C63.422,397.618 71.996,398.640 82.000,396.000 C92.345,393.270 95.885,386.492 108.000,387.000 C111.833,392.925 117.204,397.077 122.000,402.000 C125.333,402.667 128.667,403.333 132.000,404.000 C135.461,403.588 145.442,400.138 148.000,399.000 C157.825,394.627 160.052,393.040 170.000,389.000 C173.223,387.691 176.820,382.735 180.000,382.000 C183.653,381.155 187.003,385.504 192.000,384.000 C203.913,380.415 214.905,368.338 230.000,372.000 C241.911,374.890 253.556,379.211 264.000,383.000 C266.666,383.333 269.334,383.667 272.000,384.000 C273.333,385.666 274.667,387.334 276.000,389.000 C280.423,391.966 284.338,393.299 289.000,396.000 C290.830,397.061 293.711,399.114 296.000,400.000 C298.666,400.333 303.334,402.667 306.000,403.000 C316.097,406.642 320.739,410.331 331.000,415.000 C339.329,418.790 348.090,426.148 359.000,427.000 C362.087,423.455 385.311,416.727 393.000,416.000 C400.689,415.273 410.786,411.994 415.000,413.000 C420.506,414.314 424.712,419.280 430.000,419.000 C438.802,418.535 453.155,419.034 462.000,417.000 C468.900,415.413 470.551,411.392 476.000,410.000 C481.333,410.000 486.667,410.000 492.000,410.000 C498.423,408.372 502.350,406.278 511.000,406.000 C514.691,411.211 521.703,416.417 530.000,417.000 C537.097,412.016 545.064,415.236 552.000,412.000 C552.667,411.000 562.333,410.000 563.000,409.000 C568.195,406.474 584.477,400.054 592.000,402.000 C597.778,403.495 602.612,408.427 608.000,410.000 C617.253,412.702 628.638,408.431 636.000,407.000 C636.748,401.817 636.920,399.102 644.000,399.000 C646.845,400.895 654.613,400.251 658.000,399.000 C670.194,394.496 683.935,386.997 692.000,378.000 C710.741,377.814 713.952,386.227 726.000,391.000 C730.579,392.814 738.691,397.240 742.000,400.000 C745.489,402.910 752.786,411.498 755.000,411.000 C758.831,409.669 759.505,405.928 764.000,405.000 C765.267,407.196 767.743,412.667 770.000,414.000 C775.945,411.292 784.863,422.141 790.000,424.000 C794.154,425.503 796.435,420.216 799.000,426.000 C799.803,427.180 799.773,427.681 800.000,430.000 ZM-0.000,-0.000 L2.000,-0.000 L2.000,2.000 L-0.000,2.000 L-0.000,-0.000 Z" class="cls-1"/>
</svg>
