<svg xmlns="http://www.w3.org/2000/svg" xmlns:xlink="http://www.w3.org/1999/xlink" preserveAspectRatio="xMidYMid" width="1800" height="2400" viewBox="0 0 1800 2400">
  <defs>
    <style>
      .cls-1 {
        fill: #191919;
        fill-rule: evenodd;
      }
    </style>
  </defs>
  <path d="M259.800,380.400 C258.706,379.993 250.299,378.101 249.600,378.000 C248.901,377.899 247.916,376.882 245.700,375.900 C243.484,374.918 235.488,373.177 234.600,373.200 C233.712,373.223 230.969,371.742 230.100,371.100 C229.231,370.458 226.006,370.682 224.700,370.800 C223.394,370.918 223.020,371.256 221.700,371.700 C220.380,372.144 216.938,372.204 215.400,372.600 C213.862,372.996 210.788,375.180 209.700,375.300 C208.612,375.420 209.044,374.966 208.200,375.600 C207.356,376.234 206.285,376.414 205.200,376.800 C204.115,377.186 201.299,378.386 200.700,378.900 C200.101,379.414 199.436,379.974 198.300,380.100 C197.164,380.226 196.393,381.155 194.700,382.800 C193.176,383.676 189.740,383.539 189.000,383.100 C188.260,382.661 186.717,383.224 185.400,382.800 C180.909,381.356 177.625,383.352 176.400,384.000 C175.175,384.648 174.572,385.384 173.700,386.100 C172.828,386.816 173.659,387.415 171.900,387.600 C170.141,387.785 167.985,389.088 166.500,389.400 C165.015,389.712 163.001,390.673 162.300,391.200 C161.599,391.727 159.527,391.843 158.400,392.400 C157.273,392.957 154.955,393.781 153.900,394.200 C152.845,394.619 147.733,397.873 146.100,398.100 C144.467,398.327 141.542,399.859 140.700,400.200 C139.858,400.541 138.075,401.704 137.100,401.700 C136.125,401.696 133.017,403.016 131.700,403.800 C130.383,404.584 129.717,403.726 128.100,402.900 C126.483,402.074 122.782,401.567 121.200,401.100 C119.618,400.633 117.973,398.614 116.700,397.800 C115.427,396.986 113.033,393.459 112.200,391.800 C111.367,390.141 110.411,389.551 107.400,387.600 C104.389,385.649 100.847,387.130 100.200,387.600 C99.553,388.070 97.747,388.570 96.600,388.800 C95.453,389.030 95.060,390.441 94.200,390.900 C93.340,391.359 91.862,390.672 90.300,391.800 C88.115,393.378 83.166,394.686 81.600,394.800 C80.034,394.914 77.895,396.353 75.000,396.600 C72.105,396.847 68.982,397.970 67.500,398.700 C66.018,399.430 61.365,399.391 60.000,399.600 C58.635,399.809 45.708,404.007 38.100,406.800 C35.750,407.663 30.010,407.060 29.100,406.800 C28.190,406.540 25.820,405.158 24.300,405.000 C22.780,404.842 16.183,407.155 14.700,407.400 C13.217,407.645 12.717,406.555 11.700,406.500 C10.683,406.445 4.952,405.473 3.300,404.700 C0.856,403.556 0.000,403.800 0.000,403.800 L0.000,2400.000 L1799.700,2399.700 C1799.700,2399.700 1800.013,462.541 1800.000,457.500 C1795.730,455.893 1781.771,453.116 1776.000,451.200 C1770.229,449.284 1754.681,447.901 1748.700,447.900 C1742.719,447.899 1717.396,444.349 1708.500,443.700 C1699.604,443.051 1674.179,439.267 1660.800,436.800 C1647.421,434.333 1633.787,433.532 1627.500,433.500 C1621.213,433.468 1623.758,432.936 1611.300,431.100 C1598.842,429.264 1592.949,425.271 1591.200,424.200 C1589.451,423.129 1588.992,422.782 1587.600,422.700 C1586.208,422.618 1584.659,422.251 1583.400,421.200 C1582.141,420.149 1580.499,419.610 1578.900,419.400 C1577.301,419.190 1577.324,419.053 1575.600,418.500 C1571.606,414.870 1565.029,416.666 1555.800,418.500 C1546.571,420.334 1527.753,420.403 1517.400,421.200 C1507.047,421.997 1497.036,429.007 1495.500,430.500 C1493.964,431.993 1492.026,432.532 1490.100,432.900 C1488.174,433.268 1479.200,435.140 1476.000,435.900 C1472.800,436.660 1468.126,437.066 1462.500,437.400 C1456.874,437.734 1445.712,439.091 1444.200,440.100 C1442.688,441.109 1441.510,441.458 1440.000,441.600 C1438.490,441.742 1438.251,441.245 1437.000,442.500 C1435.749,443.755 1432.639,444.310 1430.100,445.200 C1427.561,446.090 1426.571,447.908 1426.500,448.500 C1426.429,449.092 1425.656,449.484 1424.400,450.000 C1420.656,451.627 1403.626,458.662 1402.500,459.600 C1401.374,460.538 1396.477,461.384 1395.300,461.400 C1394.123,461.416 1385.796,469.943 1383.900,472.200 C1382.004,474.457 1379.331,473.185 1377.000,472.800 C1374.669,472.415 1361.341,469.530 1356.600,467.700 C1351.859,465.870 1341.223,458.538 1336.200,455.100 C1331.177,451.662 1314.403,440.816 1312.500,439.200 C1310.597,437.584 1307.498,435.200 1303.800,434.400 C1300.102,433.600 1300.525,432.822 1297.200,431.400 C1293.875,429.978 1291.972,429.378 1290.900,428.700 C1289.828,428.022 1287.231,424.729 1284.600,423.600 C1281.969,422.471 1280.761,422.615 1280.100,422.400 C1279.439,422.185 1279.932,420.951 1279.200,419.700 C1278.468,418.449 1273.471,415.098 1271.400,413.100 C1269.329,411.102 1262.652,408.814 1260.900,408.000 C1259.148,407.186 1257.377,407.250 1256.400,407.400 C1255.423,407.550 1253.354,407.842 1251.600,406.500 C1249.846,405.158 1247.083,403.698 1244.100,403.800 C1241.117,403.902 1240.391,401.967 1238.400,400.500 C1236.409,399.033 1235.068,400.214 1234.200,400.800 C1233.332,401.386 1232.447,402.051 1230.300,402.000 C1228.153,401.949 1227.909,403.158 1226.100,404.700 C1224.291,406.242 1217.837,407.501 1216.200,407.700 C1214.563,407.899 1211.982,408.059 1211.100,408.300 C1202.226,410.720 1202.500,409.335 1197.600,408.300 C1192.700,407.265 1180.037,408.510 1176.900,409.200 C1173.763,409.890 1170.711,411.539 1163.700,411.900 C1156.689,412.261 1152.189,413.755 1148.700,415.500 C1145.211,417.245 1138.302,418.077 1134.000,419.400 C1129.698,420.723 1109.818,422.300 1108.500,421.800 C1107.182,421.300 1103.408,420.316 1101.300,420.300 C1099.192,420.284 1097.773,421.470 1097.100,421.500 C1096.427,421.530 1092.826,420.366 1091.400,420.900 C1089.749,422.057 1085.403,422.607 1082.100,422.700 C1078.797,422.793 1074.678,425.548 1072.500,426.600 C1070.322,427.652 1069.106,428.120 1068.900,429.000 C1068.694,429.880 1067.773,430.955 1066.200,432.600 C1063.528,436.866 1057.865,437.929 1053.900,439.500 C1049.935,441.071 1045.336,439.471 1042.500,439.800 C1039.664,440.129 1037.460,441.307 1034.700,441.000 C1031.940,440.693 1030.153,441.953 1024.200,444.300 C1017.942,446.767 1010.517,448.465 1007.400,450.600 C1004.283,452.735 996.295,453.481 991.500,452.700 C986.705,451.919 980.517,455.527 978.000,456.900 C975.483,458.273 968.797,461.742 963.000,463.200 C957.203,464.658 953.860,462.719 951.000,461.700 C948.140,460.681 939.674,459.569 935.400,459.600 C931.126,459.631 926.988,461.463 926.100,462.900 C925.212,464.337 922.748,463.793 920.400,463.200 C918.052,462.607 917.314,462.875 915.600,463.800 C913.886,464.725 907.706,463.831 903.600,463.800 C899.494,463.769 895.356,463.232 893.700,463.500 C892.044,463.768 891.762,463.962 890.700,463.200 C889.638,462.438 889.524,461.192 888.600,460.200 C887.676,459.208 884.687,460.354 882.600,461.400 C880.513,462.446 878.169,461.892 873.000,461.400 C867.831,460.908 862.165,465.334 860.700,466.500 C859.235,467.666 858.088,467.539 856.800,467.400 C855.654,465.808 855.012,466.320 854.400,467.100 C853.788,467.880 853.124,467.532 851.100,467.700 C849.076,467.868 845.253,465.440 845.100,463.200 C844.947,460.960 843.884,460.845 842.700,459.900 C841.516,458.955 840.336,458.465 839.400,458.700 C838.464,458.935 838.468,458.143 838.200,457.200 C837.932,456.257 836.799,456.669 836.100,456.300 C835.401,455.931 836.316,455.719 835.500,453.600 C834.684,451.481 831.695,450.994 830.400,449.700 C829.105,448.406 829.251,447.869 827.100,446.400 C824.949,444.931 823.037,444.542 821.700,444.600 C821.350,443.357 820.100,441.519 819.900,440.400 C819.700,439.281 819.222,439.294 817.800,438.600 C816.378,437.906 815.427,436.329 814.800,435.900 C814.173,435.471 813.592,435.554 813.300,435.000 C813.008,434.446 812.646,433.170 811.500,432.600 C810.354,432.030 809.641,431.592 808.500,430.800 C807.359,430.008 806.070,430.638 805.200,430.800 C804.330,430.962 803.226,430.273 801.900,430.200 C800.574,430.127 798.471,424.121 797.100,422.400 C795.729,420.679 791.112,422.357 789.600,422.400 C788.088,422.443 785.891,419.797 784.500,419.100 C783.109,418.403 782.345,418.699 781.200,418.200 C780.055,417.701 778.127,417.904 777.600,417.000 C777.073,416.096 775.553,415.004 774.600,413.700 C773.647,412.396 773.230,412.539 772.200,412.500 C771.170,412.461 771.811,414.105 771.600,415.200 C771.389,416.295 769.549,413.714 768.600,412.800 C767.651,411.886 767.551,408.965 767.100,407.700 C766.649,406.435 764.744,406.007 763.500,405.000 C762.256,403.993 762.041,404.629 761.100,405.300 C760.159,405.971 759.832,406.860 759.300,407.400 C758.768,407.940 757.400,408.530 756.300,409.800 C755.200,411.070 752.929,409.624 752.100,408.900 C751.271,408.176 751.206,407.161 750.600,406.200 C749.994,405.239 749.636,404.916 749.100,405.000 C748.564,405.084 748.748,403.680 748.200,402.900 C747.652,402.120 746.374,401.546 745.800,400.800 C745.226,400.054 742.867,399.498 741.600,399.600 C740.333,399.702 740.075,398.849 739.500,397.800 C738.925,396.751 737.897,395.742 736.800,395.400 C735.703,395.058 735.857,394.849 735.300,394.200 C735.047,391.389 731.970,392.345 730.500,392.400 C729.030,392.455 728.109,390.903 726.900,390.000 C725.691,389.097 724.410,389.267 722.700,389.100 C720.990,388.933 720.366,386.745 719.700,386.100 C719.034,385.455 716.910,384.758 715.800,384.900 C714.690,385.042 714.369,384.634 713.400,384.000 C710.649,381.692 705.834,378.874 699.600,377.400 C693.366,375.926 682.275,384.999 677.400,388.800 C672.525,392.601 659.058,397.912 654.900,399.300 C650.742,400.688 647.172,398.942 646.200,398.700 C645.228,398.458 642.752,399.511 641.400,399.600 C640.048,399.689 640.580,398.400 640.200,398.100 C639.820,397.800 639.459,398.232 638.400,398.700 C638.233,400.495 637.522,400.769 636.900,401.700 C636.278,402.631 636.443,403.050 636.300,405.000 C636.157,406.950 634.083,406.882 633.300,406.800 C632.517,406.718 632.246,406.974 631.800,407.700 C631.354,408.426 630.030,407.452 628.800,407.400 C627.570,407.348 627.734,407.985 626.700,409.500 C625.666,411.015 624.336,409.324 623.400,408.600 C622.464,407.876 620.620,409.702 619.800,410.400 C618.980,411.098 614.668,410.491 612.900,410.400 C611.132,410.309 608.041,409.971 606.900,409.800 C605.759,409.629 602.140,406.834 601.500,406.500 C600.860,406.166 597.997,405.192 597.000,404.100 C596.003,403.008 593.739,402.782 592.200,402.600 C590.661,402.418 586.477,402.509 584.100,402.600 C581.723,402.691 576.857,402.603 575.400,403.200 C573.943,403.797 573.630,404.905 572.700,405.300 C571.770,405.695 570.384,405.058 569.100,404.400 C567.816,403.742 566.184,405.335 565.200,406.200 C564.216,407.065 562.170,407.227 561.000,407.700 C559.830,408.173 559.748,409.659 558.900,408.900 C558.052,408.141 556.487,409.988 555.900,410.700 C555.313,411.412 554.997,410.471 554.100,410.400 C553.203,410.329 552.019,410.561 551.100,411.000 C550.181,411.439 549.304,412.683 549.000,413.100 C548.696,413.517 546.303,411.234 545.400,411.000 C544.497,410.766 544.281,411.217 544.200,411.900 C544.119,412.583 543.245,412.527 542.400,412.800 C541.555,413.073 540.476,412.833 539.400,412.200 C538.324,411.567 537.372,412.797 537.000,413.700 C536.628,414.603 535.317,414.437 533.700,414.600 C532.083,414.763 531.733,415.223 531.300,415.800 C530.867,416.377 529.431,416.255 527.400,416.100 C525.369,415.945 523.462,414.073 522.600,413.400 C521.738,412.727 520.750,412.925 519.900,412.800 C518.666,410.574 516.425,410.160 515.400,409.500 C514.375,408.840 513.733,406.296 512.700,405.000 C511.667,403.704 508.975,404.576 508.200,404.700 C507.425,404.824 504.490,405.907 503.100,406.500 C497.648,406.647 494.206,408.178 489.300,409.500 C484.394,410.822 480.810,409.788 477.900,409.500 C474.990,409.212 472.703,411.932 471.900,412.500 C471.097,413.068 470.086,412.798 468.900,413.400 C467.714,414.002 467.050,415.014 465.300,414.600 C463.550,414.186 463.059,415.239 461.700,415.800 C460.341,416.361 452.720,416.239 450.300,416.100 C447.880,415.961 437.650,416.998 435.900,417.000 C434.150,417.002 429.805,417.900 427.800,417.900 C425.795,417.900 425.497,417.756 424.800,417.300 C424.103,416.844 423.896,415.334 423.000,414.000 C422.104,412.666 416.739,412.881 414.000,412.800 C411.261,412.719 399.875,413.611 398.400,414.000 C396.925,414.389 395.977,414.308 393.000,414.600 C383.041,414.895 374.325,419.835 370.800,421.200 C367.275,422.565 358.212,426.735 357.300,427.200 C356.388,427.665 354.432,427.227 354.000,426.900 C353.568,426.573 351.696,424.773 350.700,423.300 C349.704,421.827 345.765,420.305 344.400,420.000 C343.035,419.695 341.950,418.482 340.200,417.000 C338.450,415.518 333.587,413.829 330.900,412.500 C328.213,411.171 318.957,407.920 316.800,406.800 C314.643,405.680 308.454,402.778 307.500,402.600 C306.546,402.422 306.692,403.162 305.400,402.300 C304.108,401.438 303.758,401.665 302.400,401.400 C301.042,401.135 297.933,399.820 296.400,399.300 C294.867,398.780 293.400,398.400 293.400,398.400 M264.900,382.500 C266.890,382.879 271.581,383.244 272.400,384.000 C273.219,384.756 273.656,387.175 274.200,387.300 C274.744,387.425 280.497,389.793 281.100,390.300 C281.703,390.807 287.529,395.249 288.900,395.700 C290.271,396.151 292.570,397.620 293.400,398.400 M1.000,1.000 L0.000,1.000 L0.000,-0.000 L1.000,-0.000 L1.000,1.000 Z" class="cls-1"/>
</svg>
