<svg xmlns="http://www.w3.org/2000/svg" xmlns:xlink="http://www.w3.org/1999/xlink" preserveAspectRatio="xMidYMid" width="1800" height="2400" viewBox="0 0 1800 2400">
  <defs>
    <style>
      .cls-1 {
        fill: #191919;
        fill-rule: evenodd;
      }
    </style>
  </defs>
  <path d="M1800.000,596.400 C1800.000,1197.540 1800.000,1798.860 1800.000,2400.000 C1200.060,2400.000 599.940,2400.000 -0.000,2400.000 C-0.000,2003.040 -0.000,1605.960 -0.000,1209.000 C-0.000,1101.011 -0.000,992.989 -0.000,885.000 C-0.000,855.603 -0.000,826.197 -0.000,796.800 C-0.000,789.045 -1.982,767.330 0.900,762.300 C1.100,762.200 1.300,762.100 1.500,762.000 C3.923,761.938 4.448,762.317 5.700,763.200 C6.450,766.202 9.433,768.575 12.900,768.900 C16.102,766.040 21.473,762.475 26.700,762.000 C29.257,763.336 31.764,764.382 34.800,765.600 C36.550,764.509 36.868,762.657 38.400,761.400 C45.063,761.437 44.524,764.634 48.300,766.500 C51.177,767.922 55.581,766.086 57.300,765.600 C60.908,764.579 63.385,766.520 66.000,766.800 C71.290,762.736 79.539,762.037 85.200,758.100 C87.863,756.248 87.035,753.725 91.500,753.000 C95.147,752.407 112.881,753.059 114.900,750.000 C114.500,749.100 114.100,748.200 113.700,747.300 C114.942,744.925 140.201,741.473 144.600,741.900 C145.237,741.062 155.081,733.369 156.000,732.900 C160.105,731.829 164.094,732.852 167.700,732.300 C168.917,729.587 169.449,724.013 172.200,722.700 C180.588,720.479 182.087,729.243 186.600,731.700 C188.372,732.665 196.490,735.246 198.300,735.600 C200.400,735.700 202.500,735.800 204.600,735.900 C207.000,738.200 209.400,740.500 211.800,742.800 C213.695,741.779 215.152,741.419 217.800,740.700 C217.637,738.783 217.803,738.454 218.700,737.100 C220.059,736.620 221.736,735.728 223.500,736.500 C226.564,737.852 228.173,742.198 232.200,741.300 C232.056,728.661 238.512,724.144 242.700,715.800 C245.588,710.046 244.143,702.504 246.000,695.700 C247.022,691.955 249.847,692.329 252.000,690.000 C255.662,686.040 256.026,677.856 261.000,675.300 C264.000,674.900 267.000,674.500 270.000,674.100 C269.970,666.088 275.088,666.809 278.100,662.400 C279.862,659.821 284.820,651.867 285.300,649.200 C281.425,645.075 284.395,644.666 283.200,639.900 C282.625,637.605 279.569,633.415 280.500,630.300 C281.455,628.531 283.725,628.246 284.700,626.700 C284.900,625.300 285.100,623.900 285.300,622.500 C286.800,621.500 288.300,620.500 289.800,619.500 C294.984,614.231 299.813,608.770 305.100,603.600 C309.826,603.562 314.771,603.281 317.700,605.100 C321.132,607.232 320.469,610.142 322.500,613.800 C324.119,616.716 327.952,618.600 329.700,621.300 C331.722,624.423 332.471,627.624 334.500,630.600 C336.037,632.855 338.162,633.631 339.300,636.600 C348.472,636.139 354.123,634.071 361.200,638.700 C361.249,641.488 360.635,641.932 359.700,643.500 C366.599,654.401 381.598,655.412 389.100,665.400 C388.741,668.472 386.437,671.693 388.800,673.800 C391.418,672.210 391.544,669.926 393.300,667.500 C393.969,666.575 409.006,656.182 410.100,655.800 C415.271,653.994 418.573,656.947 423.900,656.400 C428.713,655.906 431.507,656.045 434.700,658.500 C435.500,660.500 436.300,662.500 437.100,664.500 C439.300,667.200 441.500,669.900 443.700,672.600 C445.732,676.386 445.107,680.408 448.800,682.500 C454.710,681.244 455.862,675.944 459.900,672.900 C462.800,671.100 465.700,669.300 468.600,667.500 C469.900,665.700 471.200,663.900 472.500,662.100 C475.200,661.500 477.900,660.900 480.600,660.300 C480.699,656.443 486.368,650.700 488.700,648.600 C490.300,648.800 491.900,649.000 493.500,649.200 C495.007,648.422 494.461,646.990 497.400,646.800 C498.000,647.500 498.600,648.200 499.200,648.900 C510.073,642.372 512.573,654.114 520.200,657.000 C523.541,655.521 527.370,652.876 528.000,648.900 C529.143,641.685 523.560,632.905 525.000,627.300 C527.177,618.826 540.840,608.151 551.400,615.300 C551.225,617.781 550.324,618.422 550.200,620.100 C551.754,621.313 552.608,623.034 554.700,623.700 C557.441,616.747 559.394,619.629 564.300,615.900 C566.461,614.258 567.048,609.926 569.400,608.700 C573.809,606.402 577.155,607.054 582.300,606.600 C587.501,606.141 592.438,601.665 598.500,601.800 C601.971,601.878 605.978,598.210 611.100,599.400 C615.219,600.357 615.005,603.331 617.700,605.100 C619.200,605.700 620.700,606.300 622.200,606.900 C625.903,604.839 627.424,604.127 630.300,601.200 C632.960,601.456 634.365,602.074 636.300,600.900 C636.636,598.680 635.531,596.414 636.000,594.300 C637.061,589.520 645.824,578.407 653.400,580.800 C655.039,581.318 654.946,583.118 656.100,583.800 C658.329,585.117 660.424,583.205 662.700,584.100 C664.056,584.846 664.288,586.142 665.400,587.100 C675.902,583.354 680.487,585.956 688.800,591.300 C690.200,591.900 691.600,592.500 693.000,593.100 C694.654,595.544 694.099,599.608 695.100,602.100 C695.200,602.100 695.300,602.100 695.400,602.100 C695.628,602.056 705.418,600.396 705.600,600.300 C710.286,597.814 717.410,591.375 726.900,594.000 C729.500,595.800 732.100,597.600 734.700,599.400 C739.656,596.206 738.282,582.852 740.700,577.200 C746.544,563.539 755.708,535.010 779.700,540.600 C784.691,541.763 787.457,545.813 791.400,548.100 C797.477,544.332 800.134,536.444 807.000,533.100 C819.017,527.248 828.580,535.828 837.900,538.200 C840.500,538.000 843.100,537.800 845.700,537.600 C852.561,536.870 856.426,540.216 860.400,542.700 C860.199,549.480 860.767,554.173 864.000,557.400 C863.800,558.600 863.600,559.800 863.400,561.000 C864.886,563.451 868.187,563.935 869.700,566.100 C872.132,569.580 873.678,572.824 876.900,575.400 C877.100,575.100 877.300,574.800 877.500,574.500 C880.208,568.253 880.487,554.502 883.800,549.600 C886.408,545.743 889.621,547.218 892.800,544.800 C893.200,544.000 893.600,543.200 894.000,542.400 C898.166,539.497 905.334,543.590 907.800,544.800 C913.101,541.105 907.320,529.454 909.000,522.300 C909.773,519.009 912.919,515.671 915.300,513.900 C931.866,501.576 961.204,525.611 959.400,540.300 C959.600,540.400 959.800,540.500 960.000,540.600 C961.679,539.599 963.932,536.888 967.200,538.500 C969.770,539.768 968.808,544.298 971.100,545.700 C975.610,548.459 980.964,550.066 985.500,552.300 C988.100,553.100 990.700,553.900 993.300,554.700 C1001.124,558.916 1008.174,567.712 1012.500,575.400 C1013.700,578.200 1014.900,581.000 1016.100,583.800 C1018.549,587.525 1024.824,586.291 1028.400,588.900 C1031.678,591.291 1032.799,595.888 1035.300,599.100 C1037.900,601.500 1040.500,603.900 1043.100,606.300 C1047.946,612.740 1047.751,623.713 1053.300,629.400 C1059.296,628.992 1067.382,626.787 1073.700,628.200 C1075.515,632.059 1086.433,646.443 1089.600,648.900 C1091.900,648.700 1094.200,648.500 1096.500,648.300 C1097.000,647.800 1097.500,647.300 1098.000,646.800 C1097.579,645.721 1097.396,644.994 1097.700,643.800 C1102.156,642.992 1107.368,641.888 1112.700,642.900 C1113.384,643.631 1113.535,644.489 1113.900,645.600 C1122.361,645.518 1133.240,642.612 1140.900,646.200 C1142.300,647.500 1143.700,648.800 1145.100,650.100 C1148.248,651.513 1151.270,650.974 1153.800,652.500 C1154.558,656.306 1163.279,666.649 1166.100,669.300 C1170.240,668.467 1174.397,670.764 1178.400,669.900 C1178.472,668.163 1182.640,658.074 1183.500,657.600 C1188.264,654.976 1198.158,652.808 1201.200,658.200 C1200.569,661.093 1198.299,670.280 1199.100,673.500 C1200.141,677.687 1215.388,691.435 1220.700,692.100 C1230.686,685.116 1232.334,689.964 1238.100,696.300 C1240.100,695.000 1242.100,693.700 1244.100,692.400 C1249.799,691.100 1255.501,689.800 1261.200,688.500 C1264.952,686.439 1263.659,681.590 1271.700,680.100 C1277.553,679.016 1279.194,684.618 1284.900,683.700 C1289.429,680.510 1290.021,670.897 1296.000,669.600 C1302.085,668.280 1307.348,675.927 1314.300,674.700 C1316.692,672.907 1319.583,667.827 1324.200,668.700 C1326.302,669.098 1328.904,670.211 1330.800,669.900 C1331.340,666.995 1333.413,665.213 1335.300,663.600 C1338.851,663.775 1342.971,664.773 1346.400,663.900 C1346.463,662.202 1346.725,661.886 1347.300,660.900 C1354.890,659.358 1352.321,655.871 1355.400,650.100 C1358.021,645.187 1364.066,643.980 1368.600,640.800 C1369.800,639.600 1371.000,638.400 1372.200,637.200 C1381.762,635.078 1388.635,640.677 1395.900,642.300 C1399.600,641.400 1403.300,640.500 1407.000,639.600 C1410.898,640.348 1411.988,644.327 1416.900,644.700 C1419.700,643.600 1422.500,642.500 1425.300,641.400 C1430.348,640.246 1437.864,641.391 1441.500,642.600 C1448.617,644.967 1451.017,651.647 1457.100,654.900 C1459.100,654.200 1461.100,653.500 1463.100,652.800 C1466.700,653.500 1470.300,654.200 1473.900,654.900 C1474.600,655.700 1475.300,656.500 1476.000,657.300 C1478.508,658.135 1480.640,657.557 1483.200,658.500 C1483.212,662.969 1483.165,669.851 1484.700,672.300 C1488.695,673.316 1488.856,672.119 1492.200,671.400 C1495.933,674.476 1499.609,675.360 1501.500,680.400 C1502.500,680.300 1503.500,680.200 1504.500,680.100 C1505.455,677.888 1506.110,676.219 1508.400,675.300 C1514.747,674.331 1519.431,681.521 1528.200,677.100 C1533.502,674.427 1544.493,663.770 1547.100,658.500 C1548.858,654.947 1547.622,651.169 1550.100,648.600 C1552.297,646.322 1556.939,646.090 1559.700,644.400 C1560.058,642.093 1561.411,640.991 1561.800,639.300 C1562.380,636.777 1560.058,633.300 1561.500,630.600 C1562.766,628.228 1566.106,626.403 1567.500,624.300 C1567.600,623.300 1567.700,622.300 1567.800,621.300 C1568.705,619.604 1572.473,619.878 1573.500,618.000 C1575.045,615.175 1574.254,612.231 1575.900,609.900 C1576.795,608.634 1587.713,602.283 1590.300,603.300 C1591.400,604.400 1592.500,605.500 1593.600,606.600 C1595.800,605.500 1598.000,604.400 1600.200,603.300 C1603.100,603.800 1606.000,604.300 1608.900,604.800 C1610.526,604.398 1611.504,602.261 1614.300,603.000 C1617.881,603.946 1623.306,606.953 1629.300,605.400 C1630.700,604.600 1632.100,603.800 1633.500,603.000 C1635.800,603.100 1638.100,603.200 1640.400,603.300 C1642.094,602.930 1644.412,601.998 1646.700,601.800 C1650.248,604.099 1653.741,608.345 1658.100,609.600 C1664.399,609.000 1670.701,608.400 1677.000,607.800 C1681.554,608.684 1683.119,611.881 1686.300,613.800 C1689.265,614.864 1692.205,613.196 1694.100,612.600 C1695.900,612.800 1697.700,613.000 1699.500,613.200 C1701.564,612.624 1701.485,610.586 1704.600,610.200 C1705.800,610.900 1707.000,611.600 1708.200,612.300 C1709.202,610.588 1711.665,610.347 1713.600,611.400 C1714.018,612.575 1728.194,620.257 1730.700,622.800 C1732.445,622.893 1734.295,622.910 1735.200,622.200 C1733.396,617.148 1735.191,613.400 1737.000,608.700 C1745.677,605.573 1760.152,595.357 1770.300,602.700 C1770.800,602.600 1771.300,602.500 1771.800,602.400 C1773.018,593.007 1791.021,596.208 1800.000,596.400 ZM-0.000,-0.000 L1.000,-0.000 L1.000,1.000 L-0.000,1.000 L-0.000,-0.000 L-0.000,-0.000 Z" class="cls-1"/>
</svg>
