<svg xmlns="http://www.w3.org/2000/svg" xmlns:xlink="http://www.w3.org/1999/xlink" preserveAspectRatio="xMidYMid" width="1800" height="2400" viewBox="0 0 1800 2400">
  <defs>
    <style>
      .cls-1 {
        fill: #191919;
        fill-rule: evenodd;
      }
    </style>
  </defs>
  <path d="M1298.000,850.000 C1298.333,848.000 1298.667,846.000 1299.000,844.000 C1315.677,836.963 1327.731,831.818 1340.000,821.000 C1344.754,816.808 1346.917,807.161 1354.000,803.000 C1356.339,801.626 1358.873,802.989 1362.000,802.000 C1365.932,800.756 1369.699,797.135 1374.000,796.000 C1381.708,793.966 1392.296,798.587 1396.000,797.000 C1401.340,794.902 1400.801,789.379 1405.000,787.000 C1410.942,783.633 1431.666,781.468 1438.000,786.000 C1443.630,788.006 1446.595,793.724 1451.000,797.000 C1463.333,806.172 1474.076,816.447 1485.000,827.000 C1490.308,832.128 1496.623,841.474 1504.000,844.000 C1507.981,845.363 1514.855,844.391 1518.000,845.000 C1522.749,855.265 1534.523,856.659 1543.000,863.000 C1553.970,871.206 1559.890,902.139 1574.000,905.000 C1576.186,901.861 1584.453,897.146 1590.000,901.000 C1601.548,904.928 1604.397,915.085 1611.000,924.000 C1615.000,928.000 1619.000,932.000 1623.000,936.000 C1625.144,939.580 1624.418,944.050 1627.000,947.000 C1630.823,951.368 1639.357,954.865 1642.000,960.000 C1642.667,964.000 1643.333,968.000 1644.000,972.000 C1645.709,975.314 1651.392,977.333 1654.000,980.000 C1655.333,980.000 1656.667,980.000 1658.000,980.000 C1663.155,974.653 1672.642,967.504 1673.000,958.000 C1671.757,956.433 1672.358,957.490 1673.000,956.000 C1674.842,950.557 1680.427,945.620 1686.000,944.000 C1689.098,943.100 1691.811,944.540 1694.000,943.000 C1696.269,941.403 1697.071,937.072 1699.000,935.000 C1702.210,931.553 1708.301,929.862 1711.000,926.000 C1711.667,924.000 1712.333,922.000 1713.000,920.000 C1716.665,914.664 1724.512,913.509 1729.000,909.000 C1732.316,905.669 1732.245,899.994 1735.000,896.000 C1738.666,893.334 1742.334,890.666 1746.000,888.000 C1749.333,888.333 1752.667,888.667 1756.000,889.000 C1758.446,892.558 1764.056,894.396 1766.000,898.000 C1766.333,900.000 1766.667,902.000 1767.000,904.000 C1769.666,906.333 1772.334,908.667 1775.000,911.000 C1778.680,917.717 1775.060,923.589 1781.000,929.000 C1783.230,931.032 1789.363,935.146 1792.000,936.000 C1795.289,937.065 1797.874,933.355 1800.000,936.000 C1800.000,1071.653 1800.000,1207.347 1800.000,1343.000 C1800.000,1695.298 1800.000,2047.702 1800.000,2400.000 C1200.060,2400.000 599.940,2400.000 -0.000,2400.000 C-0.000,1883.385 -0.000,1366.615 -0.000,850.000 C1.754,849.369 0.971,849.807 2.000,849.000 C5.214,850.066 7.353,852.202 10.000,851.000 C20.659,847.379 19.991,837.719 27.000,831.000 C31.458,826.727 36.970,830.434 44.000,828.000 C51.793,825.302 49.660,818.205 62.000,818.000 C67.721,823.359 80.308,822.318 85.000,827.000 C87.136,829.131 96.033,857.081 97.000,862.000 C98.257,862.650 99.071,863.089 100.000,864.000 C106.946,862.047 107.743,856.876 116.000,856.000 C119.395,859.658 123.529,863.455 130.000,864.000 C132.519,861.363 135.364,858.521 138.000,856.000 C138.000,854.667 138.000,853.333 138.000,852.000 C140.000,851.667 142.000,851.333 144.000,851.000 C145.421,847.642 146.409,844.400 150.000,843.000 C155.245,839.568 167.923,842.695 174.000,843.000 C179.090,835.293 187.683,830.525 194.000,824.000 C199.940,824.026 204.273,825.195 208.000,826.000 C217.953,828.149 229.227,817.206 233.000,812.000 C234.724,809.621 239.177,807.130 240.000,804.000 C239.333,801.334 238.667,798.666 238.000,796.000 C238.317,794.449 241.458,791.527 242.000,790.000 C242.333,786.667 242.667,783.333 243.000,780.000 C244.325,777.377 248.804,775.116 250.000,772.000 C250.000,770.000 250.000,768.000 250.000,766.000 C251.003,763.297 255.093,760.728 256.000,758.000 C255.667,754.667 255.333,751.333 255.000,748.000 C256.246,743.830 259.946,735.708 266.000,735.000 C270.561,732.213 278.561,736.234 282.000,738.000 C292.676,743.482 301.211,760.702 312.000,762.000 C314.416,760.222 331.115,756.592 332.000,757.000 C336.692,757.690 337.656,758.930 338.000,764.000 C341.578,763.977 343.414,763.538 346.000,763.000 C349.496,757.126 354.089,738.074 360.000,736.000 C377.046,730.020 390.303,749.092 396.000,747.000 C402.471,744.770 405.558,738.004 412.000,736.000 C426.924,731.357 442.053,749.100 452.000,746.000 C460.563,743.331 471.424,732.351 486.000,736.000 C495.544,738.389 501.206,746.204 512.000,747.000 C516.650,742.379 527.012,737.698 534.000,736.000 C539.515,734.660 544.795,737.151 548.000,738.000 C563.792,742.181 582.040,739.599 583.000,758.000 C581.600,760.240 582.455,761.276 583.000,764.000 C584.257,764.650 585.071,765.089 586.000,766.000 C587.754,765.369 586.971,765.807 588.000,765.000 C597.784,761.733 600.424,752.536 614.000,752.000 C615.941,753.804 635.444,763.319 638.000,764.000 C642.000,763.333 646.000,762.667 650.000,762.000 C652.675,762.552 655.646,765.329 658.000,766.000 C661.333,766.000 664.667,766.000 668.000,766.000 C675.619,768.044 675.133,775.000 684.000,776.000 C688.000,772.000 692.000,768.000 696.000,764.000 C697.133,761.004 695.657,758.319 697.000,756.000 C699.666,751.398 702.701,752.096 703.000,744.000 C700.714,741.339 701.557,741.096 702.000,737.000 C702.667,737.000 703.333,737.000 704.000,737.000 C706.341,735.320 715.656,735.345 718.000,737.000 C722.995,738.874 721.708,742.151 728.000,743.000 C736.428,731.660 741.654,740.067 756.000,736.000 C763.974,733.739 767.203,727.351 778.000,727.000 C781.084,731.339 787.138,733.683 790.000,738.000 C794.858,745.327 801.060,764.126 810.000,766.000 C815.717,766.318 828.330,759.341 838.000,763.000 C847.481,766.588 849.519,776.572 863.000,777.000 C872.713,764.863 894.709,774.155 912.000,771.000 C914.541,765.740 925.373,751.681 932.000,751.000 C936.116,748.072 950.622,748.250 956.000,751.000 C958.333,753.666 960.667,756.334 963.000,759.000 C967.333,759.667 971.667,760.333 976.000,761.000 C978.236,761.971 981.326,765.284 984.000,766.000 C988.666,765.333 993.334,764.667 998.000,764.000 C1001.188,764.849 1002.728,768.192 1006.000,767.000 C1012.682,764.677 1023.774,751.507 1032.000,755.000 C1036.468,756.441 1038.146,760.582 1042.000,762.000 C1045.333,762.333 1048.667,762.667 1052.000,763.000 C1054.040,763.996 1056.817,767.914 1059.000,769.000 C1062.666,769.667 1066.334,770.333 1070.000,771.000 C1071.478,771.533 1075.732,774.598 1077.000,775.000 C1082.565,776.763 1083.607,771.969 1086.000,771.000 C1087.292,770.477 1116.947,772.332 1118.000,773.000 C1125.845,775.847 1127.422,785.748 1134.000,790.000 C1143.999,793.000 1154.001,796.000 1164.000,799.000 C1169.720,802.505 1170.511,808.474 1175.000,813.000 C1177.655,815.677 1182.211,816.449 1185.000,819.000 C1187.383,821.180 1188.706,824.706 1191.000,827.000 C1195.407,831.406 1201.311,834.938 1205.000,840.000 C1208.581,844.912 1210.959,850.473 1215.000,855.000 C1218.009,858.371 1223.402,860.259 1226.000,864.000 C1230.803,870.916 1234.947,882.714 1245.000,884.000 C1247.328,880.020 1250.262,873.605 1254.000,871.000 C1262.431,865.124 1286.143,850.389 1298.000,850.000 ZM-0.000,1.000 L1.000,1.000 L1.000,-0.000 L-0.000,-0.000 L-0.000,1.000 Z" class="cls-1"/>
</svg>
