<svg xmlns="http://www.w3.org/2000/svg" xmlns:xlink="http://www.w3.org/1999/xlink" preserveAspectRatio="xMidYMid" width="1800" height="2017.5" viewBox="0 0 1800 2017.5">
  <defs>
    <style>
      .cls-1 {
        fill: #191919;
        fill-rule: evenodd;
      }
    </style>
  </defs>
  <path d="M1800.000,213.900 C1800.000,815.040 1800.000,1416.360 1800.000,2017.500 C1200.060,2017.500 599.940,2017.500 -0.000,2017.500 C-0.000,1620.540 -0.000,1223.460 -0.000,826.500 C-0.000,718.511 -0.000,610.489 -0.000,502.500 C-0.000,473.103 -0.000,443.697 -0.000,414.300 C-0.000,406.545 -1.982,384.830 0.900,379.800 C1.100,379.700 1.300,379.600 1.500,379.500 C3.923,379.438 4.448,379.817 5.700,380.700 C6.450,383.702 9.433,386.075 12.900,386.400 C16.102,383.540 21.473,379.975 26.700,379.500 C29.257,380.836 31.764,381.882 34.800,383.100 C36.550,382.009 36.868,380.157 38.400,378.900 C45.063,378.937 44.524,382.134 48.300,384.000 C51.177,385.422 55.581,383.586 57.300,383.100 C60.908,382.079 63.385,384.020 66.000,384.300 C71.290,380.236 79.539,379.537 85.200,375.600 C87.863,373.748 87.035,371.225 91.500,370.500 C95.147,369.907 112.881,370.559 114.900,367.500 C114.500,366.600 114.100,365.700 113.700,364.800 C114.942,362.425 140.201,358.973 144.600,359.400 C145.237,358.562 155.081,350.869 156.000,350.400 C160.105,349.329 164.094,350.352 167.700,349.800 C168.917,347.087 169.449,341.513 172.200,340.200 C180.588,337.979 182.087,346.743 186.600,349.200 C188.372,350.165 196.490,352.746 198.300,353.100 C200.400,353.200 202.500,353.300 204.600,353.400 C207.000,355.700 209.400,358.000 211.800,360.300 C213.695,359.279 215.152,358.919 217.800,358.200 C217.637,356.283 217.803,355.954 218.700,354.600 C220.059,354.120 221.736,353.228 223.500,354.000 C226.564,355.352 228.173,359.698 232.200,358.800 C232.056,346.161 238.512,341.644 242.700,333.300 C245.588,327.546 244.143,320.004 246.000,313.200 C247.022,309.455 249.847,309.829 252.000,307.500 C255.662,303.540 256.026,295.356 261.000,292.800 C264.000,292.400 267.000,292.000 270.000,291.600 C269.970,283.588 275.088,284.309 278.100,279.900 C279.862,277.321 284.820,269.367 285.300,266.700 C281.425,262.575 284.395,262.166 283.200,257.400 C282.625,255.105 279.569,250.915 280.500,247.800 C281.455,246.031 283.725,245.746 284.700,244.200 C284.900,242.800 285.100,241.400 285.300,240.000 C286.800,239.000 288.300,238.000 289.800,237.000 C294.984,231.731 299.813,226.270 305.100,221.100 C309.826,221.062 314.771,220.781 317.700,222.600 C321.132,224.732 320.469,227.642 322.500,231.300 C324.119,234.216 327.952,236.100 329.700,238.800 C331.722,241.923 332.471,245.124 334.500,248.100 C336.037,250.355 338.162,251.131 339.300,254.100 C348.472,253.639 354.123,251.571 361.200,256.200 C361.249,258.988 360.635,259.432 359.700,261.000 C366.599,271.901 381.598,272.912 389.100,282.900 C388.741,285.972 386.437,289.193 388.800,291.300 C391.418,289.710 391.544,287.426 393.300,285.000 C393.969,284.075 409.006,273.682 410.100,273.300 C415.271,271.494 418.573,274.447 423.900,273.900 C428.713,273.406 431.507,273.545 434.700,276.000 C435.500,278.000 436.300,280.000 437.100,282.000 C439.300,284.700 441.500,287.400 443.700,290.100 C445.732,293.886 445.107,297.908 448.800,300.000 C454.710,298.744 455.862,293.444 459.900,290.400 C462.800,288.600 465.700,286.800 468.600,285.000 C469.900,283.200 471.200,281.400 472.500,279.600 C475.200,279.000 477.900,278.400 480.600,277.800 C480.699,273.943 486.368,268.200 488.700,266.100 C490.300,266.300 491.900,266.500 493.500,266.700 C495.007,265.922 494.461,264.490 497.400,264.300 C498.000,265.000 498.600,265.700 499.200,266.400 C510.073,259.872 512.573,271.614 520.200,274.500 C523.541,273.021 527.370,270.376 528.000,266.400 C529.143,259.185 523.560,250.405 525.000,244.800 C527.177,236.326 540.840,225.651 551.400,232.800 C551.225,235.281 550.324,235.922 550.200,237.600 C551.754,238.813 552.608,240.534 554.700,241.200 C557.441,234.247 559.394,237.129 564.300,233.400 C566.461,231.758 567.048,227.426 569.400,226.200 C573.809,223.902 577.155,224.554 582.300,224.100 C587.501,223.641 592.438,219.165 598.500,219.300 C601.971,219.378 605.978,215.710 611.100,216.900 C615.219,217.857 615.005,220.831 617.700,222.600 C619.200,223.200 620.700,223.800 622.200,224.400 C625.903,222.339 627.424,221.627 630.300,218.700 C632.960,218.956 634.365,219.574 636.300,218.400 C636.636,216.180 635.531,213.914 636.000,211.800 C637.061,207.020 645.824,195.907 653.400,198.300 C655.039,198.818 654.946,200.618 656.100,201.300 C658.329,202.617 660.424,200.705 662.700,201.600 C664.056,202.346 664.288,203.642 665.400,204.600 C675.902,200.854 680.487,203.456 688.800,208.800 C690.200,209.400 691.600,210.000 693.000,210.600 C694.654,213.044 694.099,217.108 695.100,219.600 C695.200,219.600 695.300,219.600 695.400,219.600 C695.628,219.556 705.418,217.896 705.600,217.800 C710.286,215.314 717.410,208.875 726.900,211.500 C729.500,213.300 732.100,215.100 734.700,216.900 C739.656,213.706 738.282,200.352 740.700,194.700 C746.544,181.039 755.708,152.510 779.700,158.100 C784.691,159.263 787.457,163.313 791.400,165.600 C797.477,161.832 800.134,153.944 807.000,150.600 C819.017,144.748 828.580,153.328 837.900,155.700 C840.500,155.500 843.100,155.300 845.700,155.100 C852.561,154.370 856.426,157.716 860.400,160.200 C860.199,166.980 860.767,171.673 864.000,174.900 C863.800,176.100 863.600,177.300 863.400,178.500 C864.886,180.951 868.187,181.435 869.700,183.600 C872.132,187.080 873.678,190.324 876.900,192.900 C877.100,192.600 877.300,192.300 877.500,192.000 C880.208,185.753 880.487,172.002 883.800,167.100 C886.408,163.243 889.621,164.718 892.800,162.300 C893.200,161.500 893.600,160.700 894.000,159.900 C898.166,156.997 905.334,161.090 907.800,162.300 C913.101,158.605 907.320,146.954 909.000,139.800 C909.773,136.509 912.919,133.171 915.300,131.400 C931.866,119.076 961.204,143.111 959.400,157.800 C959.600,157.900 959.800,158.000 960.000,158.100 C961.679,157.099 963.932,154.388 967.200,156.000 C969.770,157.268 968.808,161.798 971.100,163.200 C975.610,165.959 980.964,167.566 985.500,169.800 C988.100,170.600 990.700,171.400 993.300,172.200 C1001.124,176.416 1008.174,185.212 1012.500,192.900 C1013.700,195.700 1014.900,198.500 1016.100,201.300 C1018.549,205.025 1024.824,203.791 1028.400,206.400 C1031.678,208.791 1032.799,213.388 1035.300,216.600 C1037.900,219.000 1040.500,221.400 1043.100,223.800 C1047.946,230.240 1047.751,241.213 1053.300,246.900 C1059.296,246.492 1067.382,244.287 1073.700,245.700 C1075.515,249.559 1086.433,263.943 1089.600,266.400 C1091.900,266.200 1094.200,266.000 1096.500,265.800 C1097.000,265.300 1097.500,264.800 1098.000,264.300 C1097.579,263.221 1097.396,262.494 1097.700,261.300 C1102.156,260.492 1107.368,259.388 1112.700,260.400 C1113.384,261.131 1113.535,261.989 1113.900,263.100 C1122.361,263.018 1133.240,260.112 1140.900,263.700 C1142.300,265.000 1143.700,266.300 1145.100,267.600 C1148.248,269.013 1151.270,268.474 1153.800,270.000 C1154.558,273.806 1163.279,284.149 1166.100,286.800 C1170.240,285.967 1174.397,288.264 1178.400,287.400 C1178.472,285.663 1182.640,275.574 1183.500,275.100 C1188.264,272.476 1198.158,270.308 1201.200,275.700 C1200.569,278.593 1198.299,287.780 1199.100,291.000 C1200.141,295.187 1215.388,308.935 1220.700,309.600 C1230.686,302.616 1232.334,307.464 1238.100,313.800 C1240.100,312.500 1242.100,311.200 1244.100,309.900 C1249.799,308.600 1255.501,307.300 1261.200,306.000 C1264.952,303.939 1263.659,299.090 1271.700,297.600 C1277.553,296.516 1279.194,302.118 1284.900,301.200 C1289.429,298.010 1290.021,288.397 1296.000,287.100 C1302.085,285.780 1307.348,293.427 1314.300,292.200 C1316.692,290.407 1319.583,285.327 1324.200,286.200 C1326.302,286.598 1328.904,287.711 1330.800,287.400 C1331.340,284.495 1333.413,282.713 1335.300,281.100 C1338.851,281.275 1342.971,282.273 1346.400,281.400 C1346.463,279.702 1346.725,279.386 1347.300,278.400 C1354.890,276.858 1352.321,273.371 1355.400,267.600 C1358.021,262.687 1364.066,261.480 1368.600,258.300 C1369.800,257.100 1371.000,255.900 1372.200,254.700 C1381.762,252.578 1388.635,258.177 1395.900,259.800 C1399.600,258.900 1403.300,258.000 1407.000,257.100 C1410.898,257.848 1411.988,261.827 1416.900,262.200 C1419.700,261.100 1422.500,260.000 1425.300,258.900 C1430.348,257.746 1437.864,258.891 1441.500,260.100 C1448.617,262.467 1451.017,269.147 1457.100,272.400 C1459.100,271.700 1461.100,271.000 1463.100,270.300 C1466.700,271.000 1470.300,271.700 1473.900,272.400 C1474.600,273.200 1475.300,274.000 1476.000,274.800 C1478.508,275.635 1480.640,275.057 1483.200,276.000 C1483.212,280.469 1483.165,287.351 1484.700,289.800 C1488.695,290.816 1488.856,289.619 1492.200,288.900 C1495.933,291.976 1499.609,292.860 1501.500,297.900 C1502.500,297.800 1503.500,297.700 1504.500,297.600 C1505.455,295.388 1506.110,293.719 1508.400,292.800 C1514.747,291.831 1519.431,299.021 1528.200,294.600 C1533.502,291.927 1544.493,281.270 1547.100,276.000 C1548.858,272.447 1547.622,268.669 1550.100,266.100 C1552.297,263.822 1556.939,263.590 1559.700,261.900 C1560.058,259.593 1561.411,258.491 1561.800,256.800 C1562.380,254.277 1560.058,250.800 1561.500,248.100 C1562.766,245.728 1566.106,243.903 1567.500,241.800 C1567.600,240.800 1567.700,239.800 1567.800,238.800 C1568.705,237.104 1572.473,237.378 1573.500,235.500 C1575.045,232.675 1574.254,229.731 1575.900,227.400 C1576.795,226.134 1587.713,219.783 1590.300,220.800 C1591.400,221.900 1592.500,223.000 1593.600,224.100 C1595.800,223.000 1598.000,221.900 1600.200,220.800 C1603.100,221.300 1606.000,221.800 1608.900,222.300 C1610.526,221.898 1611.504,219.761 1614.300,220.500 C1617.881,221.446 1623.306,224.453 1629.300,222.900 C1630.700,222.100 1632.100,221.300 1633.500,220.500 C1635.800,220.600 1638.100,220.700 1640.400,220.800 C1642.094,220.430 1644.412,219.498 1646.700,219.300 C1650.248,221.599 1653.741,225.845 1658.100,227.100 C1664.399,226.500 1670.701,225.900 1677.000,225.300 C1681.554,226.184 1683.119,229.381 1686.300,231.300 C1689.265,232.364 1692.205,230.696 1694.100,230.100 C1695.900,230.300 1697.700,230.500 1699.500,230.700 C1701.564,230.124 1701.485,228.086 1704.600,227.700 C1705.800,228.400 1707.000,229.100 1708.200,229.800 C1709.202,228.088 1711.665,227.847 1713.600,228.900 C1714.018,230.075 1728.194,237.757 1730.700,240.300 C1732.445,240.393 1734.295,240.410 1735.200,239.700 C1733.396,234.648 1735.191,230.900 1737.000,226.200 C1745.677,223.073 1760.152,212.857 1770.300,220.200 C1770.800,220.100 1771.300,220.000 1771.800,219.900 C1773.018,210.507 1791.021,213.708 1800.000,213.900 ZM264.900,-0.000 C266.890,0.379 271.581,0.744 272.400,1.500 C273.219,2.256 273.656,4.675 274.200,4.800 C274.744,4.925 280.497,7.293 281.100,7.800 C281.703,8.307 287.529,12.749 288.900,13.200 C290.271,13.651 292.570,15.120 293.400,15.900 " class="cls-1"/>
</svg>
